<svg width="248" height="260" viewBox="0 0 248 260" fill="none" xmlns="http://www.w3.org/2000/svg">
<rect x="71.938" y="44.2671" width="4.57678" height="86.9588" rx="2.28839" transform="rotate(-30 71.938 44.2671)" fill="black"/>
<rect x="115.489" y="119.534" width="4.57678" height="96.1123" rx="2.28839" transform="rotate(-30 115.489 119.534)" fill="black"/>
<rect x="71.938" y="44.2671" width="4.57678" height="86.9588" rx="2.28839" transform="rotate(-30 71.938 44.2671)" fill="black"/>
<rect x="54.2922" y="58.5601" width="4.57678" height="86.9588" rx="2.28839" transform="rotate(-45 54.2922 58.5601)" fill="black"/>
<rect x="40.947" y="76.9336" width="4.57678" height="86.9587" rx="2.28839" transform="rotate(-60 40.947 76.9336)" fill="black"/>
<rect x="32.8113" y="98.1353" width="4.57678" height="86.9588" rx="2.28839" transform="rotate(-75 32.8113 98.1353)" fill="black"/>
<rect x="30.4409" y="120.72" width="4.57678" height="86.9587" rx="2.28839" transform="rotate(-90 30.4409 120.72)" fill="black"/>
<rect x="33.9956" y="143.148" width="4.57678" height="86.9587" rx="2.28839" transform="rotate(-105 33.9956 143.148)" fill="black"/>
<rect x="92.6819" y="35.0283" width="4.57678" height="86.9588" rx="2.28839" transform="rotate(-15 92.6819 35.0283)" fill="black"/>
<rect x="115.111" y="31.4727" width="4.57678" height="86.9587" rx="2.28839" fill="black"/>
<rect x="137.696" y="33.8433" width="4.57678" height="86.9588" rx="2.28839" transform="rotate(15 137.696 33.8433)" fill="black"/>
<rect x="158.897" y="41.9785" width="4.57678" height="86.9588" rx="2.28839" transform="rotate(30 158.897 41.9785)" fill="black"/>
<rect x="177.27" y="55.3247" width="4.57678" height="86.9587" rx="2.28839" transform="rotate(45 177.27 55.3247)" fill="black"/>
<rect x="150.121" y="184.096" width="9.15355" height="41.191" rx="4.57678" transform="rotate(-30 150.121 184.096)" fill="black"/>
</svg>
