<svg width="513" height="513" viewBox="0 0 513 513" fill="none" xmlns="http://www.w3.org/2000/svg">
<path d="M212.11 27.8965C212.11 12.8155 224.336 0.589844 239.417 0.589844H266.723C281.805 0.589844 294.03 12.8155 294.03 27.8965V485.283C294.03 500.364 281.805 512.59 266.723 512.59H239.417C224.336 512.59 212.11 500.364 212.11 485.283V27.8965Z" fill="black"/>
<path d="M334.99 37.8905C342.531 24.8299 359.231 20.355 372.292 27.8955L395.94 41.5489C409.001 49.0894 413.476 65.7899 405.935 78.8505L177.242 474.959C169.701 488.019 153.001 492.494 139.94 484.954L116.292 471.301C103.231 463.76 98.7564 447.06 106.297 433.999L334.99 37.8905Z" fill="black"/>
<path d="M434.221 109.817C447.281 102.277 463.982 106.752 471.522 119.812L485.176 143.461C492.716 156.521 488.241 173.222 475.181 180.762L79.0724 409.456C66.0118 416.996 49.3113 412.521 41.7708 399.461L28.1175 375.812C20.577 362.752 25.0518 346.051 38.1124 338.511L434.221 109.817Z" fill="black"/>
<path d="M485.176 219.043C500.258 219.043 512.483 231.269 512.483 246.35V273.656C512.483 288.737 500.258 300.963 485.176 300.963L27.7898 300.963C12.7088 300.963 0.483154 288.737 0.483154 273.656L0.483155 246.35C0.483156 231.269 12.7088 219.043 27.7898 219.043L485.176 219.043Z" fill="black"/>
<path d="M475.183 341.921C488.243 349.461 492.718 366.162 485.178 379.222L471.524 402.871C463.984 415.931 447.283 420.406 434.223 412.866L38.1143 184.172C25.0537 176.632 20.5789 159.931 28.1194 146.871L41.7727 123.222C49.3132 110.162 66.0137 105.687 79.0743 113.228L475.183 341.921Z" fill="black"/>
<path d="M410.084 434.328C417.625 447.389 413.15 464.089 400.089 471.63L376.441 485.283C363.38 492.824 346.68 488.349 339.139 475.288L110.446 79.1798C102.906 66.1193 107.38 49.4188 120.441 41.8782L144.089 28.2249C157.15 20.6844 173.85 25.1593 181.391 38.2198L410.084 434.328Z" fill="black"/>
</svg>
